<svg width="20" height="20" viewBox="0 0 20 20" fill="none" xmlns="http://www.w3.org/2000/svg">
<path d="M14.5 14.5L19 19M1 8.71429C1 9.72734 1.19954 10.7305 1.58721 11.6664C1.97489 12.6024 2.54312 13.4528 3.25946 14.1691C3.9758 14.8854 4.82622 15.4537 5.76216 15.8414C6.6981 16.229 7.70123 16.4286 8.71429 16.4286C9.72734 16.4286 10.7305 16.229 11.6664 15.8414C12.6024 15.4537 13.4528 14.8854 14.1691 14.1691C14.8854 13.4528 15.4537 12.6024 15.8414 11.6664C16.229 10.7305 16.4286 9.72734 16.4286 8.71429C16.4286 6.66833 15.6158 4.70617 14.1691 3.25946C12.7224 1.81275 10.7602 1 8.71429 1C6.66833 1 4.70617 1.81275 3.25946 3.25946C1.81275 4.70617 1 6.66833 1 8.71429V8.71429Z" stroke="#0D0D0D" stroke-width="1.5" stroke-linecap="round" stroke-linejoin="round"/>
</svg>
